<svg width="115" height="95" viewBox="0 0 115 95" fill="none" xmlns="http://www.w3.org/2000/svg">
<g clip-path="url(#clip0)">
<path d="M116 86.9433V93.9928C51.2948 97.014 34.8671 93.9928 34.1965 89.6289C33.8613 87.9504 35.5376 83.9221 36.8786 81.2366C38.5549 77.8797 39.896 77.2084 42.578 72.8444C44.2543 69.8232 45.2601 68.1448 45.2601 65.7949C45.5954 62.438 44.2543 60.4239 42.578 57.067V56.7313C41.9075 56.7313 41.5723 56.7313 41.237 56.7313H40.5665C40.2312 56.7313 39.5607 56.7313 39.2254 56.3956C34.8671 55.0529 30.8439 53.0387 27.4913 50.0175C24.1387 46.9963 21.4566 43.3038 19.7803 38.9398C18.7746 38.2684 17.7688 37.2614 16.0925 35.9186C13.7457 34.2402 11.3988 32.8974 9.05202 31.5546C4.02312 28.8691 3.01733 28.8691 2.01156 27.1907C-7.62939e-06 24.5052 0.335251 20.8126 0.670509 18.7985C0.670509 17.7914 1.67629 10.4062 6.36993 9.06348C7.71098 8.72779 9.38728 8.72779 10.7283 9.06348C11.7341 9.39917 12.7399 10.0705 13.4104 10.4062C14.7514 11.0776 16.0925 11.4133 17.7688 11.749C17.7688 11.749 19.7803 12.0847 22.4624 13.0917C25.4798 9.06348 29.1676 5.70659 33.526 3.35677C38.5549 0.335565 45.5954 -0.671502 52.3006 0.671254C56.9942 1.67832 61.3526 3.35677 65.0405 6.37797C63.0289 8.72779 61.0173 11.0776 59.341 13.4274C59.6763 13.4274 63.6994 6.71366 69.0636 6.37797C73.422 6.04228 77.1098 10.0705 77.4451 10.7419C78.4509 11.749 79.1214 13.0917 79.7919 14.4345C80.1272 15.7773 80.4624 17.4557 80.4624 18.7985C80.4624 20.1412 79.7919 21.8197 79.1214 23.1624C78.4509 24.5052 77.4451 25.5122 76.104 26.5193C75.4335 27.1907 74.4277 27.5264 73.422 27.8621H74.763C75.0983 29.8762 75.0983 31.5546 74.763 33.5688C74.4277 35.2472 74.0925 36.59 73.422 38.2684L74.763 36.59C74.4277 38.9398 75.0983 41.6253 76.104 43.6395C78.1156 46.6607 81.1329 47.332 85.8266 49.3462C91.1908 51.3603 95.8844 53.3744 99.9075 56.3956C103.595 59.4168 105.607 62.438 109.63 69.1518C114.324 76.537 114.994 80.5652 115.329 83.2508C116 83.9221 116 85.2649 116 86.9433Z" fill="#ED202C"/>
<path d="M4.02312 14.0988C5.0289 14.0988 6.03468 14.0988 7.04046 13.7631C8.04624 13.4274 8.71676 13.0918 9.72254 12.4204C10.0578 12.0847 10.3931 11.749 10.3931 11.4133C10.3931 11.0776 10.3931 10.7419 10.3931 10.4062C10.3931 10.0705 10.0578 9.73486 9.72254 9.73486C9.05202 9.39917 8.3815 9.39917 7.37572 9.73486C6.36994 9.73486 5.36417 10.0705 4.35838 10.4062C4.02312 10.7419 3.68786 11.0776 3.68786 11.4133C3.68786 11.749 3.68786 12.0847 3.68786 12.4204C4.02312 12.7561 4.35838 13.0918 4.69364 13.0918C5.0289 13.0918 5.36417 13.0918 6.03469 13.0918L6.36994 12.7561H6.03469C6.70521 12.4204 7.71099 12.0847 8.38151 12.0847H8.04624C8.3815 12.0847 8.38151 12.0847 8.71677 12.0847H8.38151H8.04624L7.71099 11.749L7.37572 11.0776V10.4062V10.0705C7.37572 10.0705 7.37573 9.73486 7.71099 9.73486C7.37573 10.0705 7.37572 10.0705 7.04046 10.4062L7.37572 10.0705C7.04046 10.4062 6.7052 10.4062 6.36994 10.7419H6.70521C6.36995 10.7419 6.03468 11.0776 5.69942 11.0776H6.03469C5.36417 11.0776 4.69364 11.0776 4.02312 11.0776C3.68786 11.0776 3.3526 11.0776 3.01734 11.4133C2.68208 11.749 2.68208 11.749 2.68208 12.0847C2.68208 12.4204 2.68208 12.7561 2.68208 13.0918C2.68208 13.4274 3.01735 13.4274 3.35261 13.7631C3.35261 14.0988 3.68786 14.0988 4.02312 14.0988Z" fill="#231F20"/>
<path d="M48.2779 20.4769C50.2894 16.1129 45.931 9.39917 40.5669 9.06348C38.8906 9.06348 37.5495 9.39917 36.2085 10.4062C34.8675 11.4133 33.8617 12.7561 33.1912 14.0988C32.8559 15.1059 32.8559 16.1129 32.8559 17.4557C32.8559 18.4628 33.1912 19.1341 33.5264 20.1412C34.1969 21.1483 34.8675 22.1554 35.8732 22.8267C39.8964 25.8479 46.6016 24.1695 48.2779 20.4769Z" fill="white"/>
<path d="M36.8779 23.1624C38.8894 22.491 40.901 19.8055 41.2363 16.4486C41.5715 13.0917 40.5657 10.0705 38.5542 9.06348C35.5369 10.0705 32.1843 12.4204 32.5195 15.7773V16.1129C32.5195 16.4486 32.5195 16.7843 32.5195 17.12C32.5195 17.7914 32.8548 18.7985 33.19 19.4698C33.5253 20.4769 34.1958 21.1483 35.2016 22.1554C35.5368 22.491 35.8721 22.491 35.8721 22.8267C36.5426 22.8267 36.5426 22.8267 36.8779 23.1624Z" fill="#010101"/>
</g>
<defs>
<clipPath id="clip0">
<rect width="116" height="95" fill="white" transform="matrix(-1 0 0 1 116 0)"/>
</clipPath>
</defs>
</svg>
