<svg width="447" height="447" viewBox="0 0 447 447" fill="none" xmlns="http://www.w3.org/2000/svg">
<g opacity="0.7">
<path opacity="0.7" d="M339.826 6.97029L6.96875 106.474L106.469 439.259L439.326 339.755L339.826 6.97029Z" stroke="#FF8CE3" stroke-miterlimit="10"/>
<path opacity="0.7" d="M100.226 418.478L433.132 318.937" stroke="#FF8CE3" stroke-miterlimit="10"/>
<path opacity="0.7" d="M94.054 397.639L426.889 298.2" stroke="#FF8CE3" stroke-miterlimit="10"/>
<path opacity="0.7" d="M87.8109 376.902L420.631 277.377" stroke="#FF8CE3" stroke-miterlimit="10"/>
<path opacity="0.7" d="M81.6391 356.063L414.459 256.538" stroke="#FF8CE3" stroke-miterlimit="10"/>
<path opacity="0.7" d="M75.3964 335.326L408.216 235.801" stroke="#FF8CE3" stroke-miterlimit="10"/>
<path opacity="0.7" d="M69.1386 314.503L402.044 214.963" stroke="#FF8CE3" stroke-miterlimit="10"/>
<path opacity="0.7" d="M62.9661 293.664L395.801 194.225" stroke="#FF8CE3" stroke-miterlimit="10"/>
<path opacity="0.7" d="M56.7235 272.927L389.543 173.402" stroke="#FF8CE3" stroke-miterlimit="10"/>
<path opacity="0.7" d="M50.4657 252.104L383.371 152.564" stroke="#FF8CE3" stroke-miterlimit="10"/>
<path opacity="0.7" d="M44.2933 231.265L377.128 131.826" stroke="#FF8CE3" stroke-miterlimit="10"/>
<path opacity="0.7" d="M38.0507 210.528L370.956 110.988" stroke="#FF8CE3" stroke-miterlimit="10"/>
<path opacity="0.7" d="M31.8788 189.69L364.698 90.1647" stroke="#FF8CE3" stroke-miterlimit="10"/>
<path opacity="0.7" d="M25.6204 168.867L358.455 69.4275" stroke="#FF8CE3" stroke-miterlimit="10"/>
<path opacity="0.7" d="M19.3778 148.129L352.284 48.589" stroke="#FF8CE3" stroke-miterlimit="10"/>
<path opacity="0.7" d="M13.206 127.291L346.026 27.7656" stroke="#FF8CE3" stroke-miterlimit="10"/>
<path opacity="0.7" d="M319.026 13.1855L418.562 346.019" stroke="#FF8CE3" stroke-miterlimit="10"/>
<path opacity="0.7" d="M298.198 19.4438L397.719 352.191" stroke="#FF8CE3" stroke-miterlimit="10"/>
<path opacity="0.7" d="M277.456 25.687L376.891 358.449" stroke="#FF8CE3" stroke-miterlimit="10"/>
<path opacity="0.7" d="M256.613 31.8591L356.134 364.606" stroke="#FF8CE3" stroke-miterlimit="10"/>
<path opacity="0.7" d="M235.786 38.1174L335.306 370.865" stroke="#FF8CE3" stroke-miterlimit="10"/>
<path opacity="0.7" d="M215.028 44.2745L314.478 377.123" stroke="#FF8CE3" stroke-miterlimit="10"/>
<path opacity="0.7" d="M194.201 50.5328L293.722 383.28" stroke="#FF8CE3" stroke-miterlimit="10"/>
<path opacity="0.7" d="M173.373 56.7911L272.894 389.538" stroke="#FF8CE3" stroke-miterlimit="10"/>
<path opacity="0.7" d="M152.616 62.948L252.066 395.797" stroke="#FF8CE3" stroke-miterlimit="10"/>
<path opacity="0.7" d="M131.788 69.2064L231.309 401.954" stroke="#FF8CE3" stroke-miterlimit="10"/>
<path opacity="0.7" d="M110.945 75.3785L210.481 408.212" stroke="#FF8CE3" stroke-miterlimit="10"/>
<path opacity="0.7" d="M90.2036 81.6216L189.724 414.369" stroke="#FF8CE3" stroke-miterlimit="10"/>
<path opacity="0.7" d="M69.3755 87.8801L168.896 420.627" stroke="#FF8CE3" stroke-miterlimit="10"/>
<path opacity="0.7" d="M48.6187 94.037L148.069 426.886" stroke="#FF8CE3" stroke-miterlimit="10"/>
<path opacity="0.7" d="M27.791 100.295L127.312 433.043" stroke="#FF8CE3" stroke-miterlimit="10"/>
</g>
</svg>
