<svg width="450" height="452" viewBox="0 0 450 452" fill="none" xmlns="http://www.w3.org/2000/svg">
<path d="M91.8563 84.4484C87.7912 97.0703 146.909 140.401 216.58 150.03C270.249 157.403 351.077 147.688 370.667 103.837C383.079 76.0339 364.094 49.6625 380.874 35.6094C395.318 23.508 426.066 29.0165 441.203 46.236C463.994 72.1302 443.711 115.851 440.986 121.707C418.801 169.548 369.543 178.874 372.83 188.893C377.111 201.949 469.962 201.385 493.445 158.097C506.721 133.678 492.709 107.827 502.397 103.49C514.549 98.0245 554.12 131.162 551.871 168.811C550.141 197.221 525.188 219.385 502.57 227.322C469.529 238.903 442.414 218.17 430.78 230.575C414.39 248.055 441.895 307.824 459.539 306.61C473.335 305.656 480.384 267.703 498.677 266.229C508.365 265.448 516.409 275.424 520.603 280.629C537.167 301.232 540.021 335.54 524.496 361.738C521.598 366.639 510.095 385.464 487.39 392.577C449.419 404.462 400.81 375.618 389.999 344.822C386.106 333.762 388.874 329.078 383.122 321.921C365.694 300.321 311.16 306.35 304.197 325.738C300.002 337.405 312.847 354.668 315.398 358.095C323.399 368.808 328.848 368.938 331.616 374.707C341.649 395.483 301.3 456.814 261.989 451.609C231.802 447.619 211.347 405.589 208.103 374.88C205.422 349.463 214.72 333.502 205.768 326.605C195.605 318.755 168.662 327.95 154.607 346.514C134.108 373.623 154.564 402.943 135.146 422.939C121.307 437.165 93.9754 439.855 77.5849 429.618C46.0582 409.927 57.0428 343.478 59.2916 329.858C63.3568 305.135 72.6981 280.195 79.6608 232.093C80.6987 224.893 82.0394 214.831 78.2769 203.12C71.2709 181.389 52.8046 173.235 39.6576 162.435C3.33048 132.507 -10.7679 67.0555 8.86605 43.9372C21.5373 29.0165 27.4189 11.1464 87.8776 1.77766C136.53 -5.76941 164.727 12.7513 179.647 24.0719C197.335 37.5178 197.594 74.8628 184.447 83.8412C176.274 89.3931 167.624 80.8918 141.72 78.1592C125.589 76.4676 94.5376 76.2074 91.8563 84.4484Z" fill="#FF3333"/>
</svg>
